<svg version="1.2" xmlns="http://www.w3.org/2000/svg" viewBox="0 0 922 213" width="922" height="213">
	<title>SEHSAA logo-ai</title>
	<style>
		.s0 { fill: #ffffff } 
	</style>
	<g id="Layer 1">
		<g id="&lt;Group&gt;">
			<path id="&lt;Compound Path&gt;" fill-rule="evenodd" class="s0" d="m182.5 109.2v67.2h85.7v13.4h-99.1v-160.8h106.9q-33 33.1-66.1 66.2h44.8v14zm0.3-66.6v60.3c20.1-20.3 40-40.5 59.5-60.3z"/>
			<path id="&lt;Path&gt;" class="s0" d="m434.8 187.2h-14.4v-74.2h-87.9v74h-15.4v-160.1h14.9v70.9h88v-70.7h14.8z"/>
			<path id="&lt;Compound Path&gt;" fill-rule="evenodd" class="s0" d="m728.4 175.5c-3.9-8.8-11.7-26.3-11.7-26.3l-2.3-4.3h-8.5l-69.3-0.1-2.1 4.4-12.8 29.5-3.2 8.6h-17.8c25.2-55.5 49.7-109.4 75.2-165.5 25.2 56.1 75.9 165.5 75.9 165.5 0 0-17.3 0.1-17.8 0.1m-25.6-56.8c-11-24.8-21.8-49.1-32.8-74-11 25.1-21.7 49.3-32.6 74z"/>
			<path id="&lt;Compound Path&gt;" fill-rule="evenodd" class="s0" d="m886.2 175.5c-3.9-8.8-11.7-26.3-11.7-26.3l-2.3-4.3h-8.5l-69.3-0.1-2.1 4.4-12.8 29.5-3.2 8.6h-17.8c25.2-55.5 49.7-109.4 75.2-165.5 25.2 56.1 75.8 165.5 75.8 165.5 0 0-17.2 0.1-17.7 0.1m-25.6-56.8c-11-24.8-21.8-49.1-32.8-74-11.1 25.1-21.7 49.3-32.6 74z"/>
			<path id="&lt;Path&gt;" class="s0" d="m23.8 168.9c2.9-3.7 5.6-7.2 8.8-11.3 7.8 8.5 17 15 28.3 16.7 7.6 1.1 15.7 1.4 23.3 0.1 11.1-1.9 19.3-8.9 21.9-20.2 2.8-12.1 0.3-23.7-9.7-31.7-7.9-6.2-17-10.8-25.7-15.9-6.6-3.8-13.5-6.9-19.9-11-14-8.8-19.7-21.8-17.4-38 2.2-15.2 11.4-25 25.3-30.6 19.7-8 43.7-3 59.7 12.4-2.8 3.5-5.6 7.1-8.7 11.1-9.6-9.5-20.9-13.9-34.3-13.1-20.9 1.2-33.5 21.6-22.5 37.9 3.7 5.4 9.9 9.7 15.8 13.1 10.3 6.2 21.7 10.7 32 17 20.2 12.6 28.3 35.1 20.2 55.3-7.3 18.4-22.4 26.7-41.1 29.3-19.2 2.7-42.5-6.1-56-21.1z"/>
			<path id="&lt;Path&gt;" class="s0" d="m570.3 39.6c-2.8 3.6-5.5 6.9-8.5 10.6-9.4-8.2-19.7-13.3-32.3-12.8-13.2 0.5-24.1 7.2-27.4 17.8-3.6 11.5 0.5 22.3 12.7 29.8 9.7 5.9 20.3 10.6 30.4 15.9 11.1 5.9 21 13.2 26.4 25.1 12 26.6-2.7 55.5-31.9 62.6-22.2 5.3-47.9-2.3-64-19.5 2.9-3.6 5.8-7.4 8.8-11.4 12.7 13.3 27.9 19.6 46.1 17.8 13-1.3 22.8-7.1 27.1-19.8 4.2-12.7-0.1-26.8-11.1-35-6.8-5.1-14.5-8.9-21.9-13.1-7.4-4.2-15.3-7.7-22.4-12.3-13-8.5-19-20.8-17.2-36.3 1.8-14.6 9.9-24.8 23.1-31 20-9.2 47.1-4.3 62.1 11.6z"/>
		</g>
	</g>
</svg>